<svg enable-background="new 0 0 1024 800" viewBox="0 0 1024 800" xmlns="http://www.w3.org/2000/svg"><path d="m432.742432 488.151978c2.103881-7.205964 2.785919-14.251435 4.059814-21.186585 1.601563-8.719116 3.52536-17.379272 5.33017-26.060699.906433-4.36023 1.506683-8.793183 2.273407-13.16092 3.198761-18.222412 7.056183-36.321441 10.17398-54.545715 2.288422-13.376526 5.078553-26.659668 7.46167-40.013214 2.190827-12.276093 4.741333-24.554504 7.087098-36.814087 1.718444-8.981201 3.463043-18.04126 4.795471-27.144348 1.233246-8.425537 2.844635-16.853043 4.467773-25.230637 2.271301-11.7229-3.191742-20.454834-14.958435-22.891494-3.61969-.749573-7.629761-.351502-11.023071-2.557938 1.071411-2.532456 3.172546-1.803101 4.812042-1.808395 19.162994-.061875 38.326569-.103486 57.489319-.011002 9.17279.044266 18.736145 8.180984 21.501099 18.003326 2.187988 7.772705 2.913879 15.816483 4.37561 23.700394 2.16394 11.671417 2.260071 23.61676 5.323791 35.144959 1.346009 5.064849 1.163636 10.478973 1.800232 15.666992.860169 7.009765 1.908203 14.124237 2.971985 21.067749 1.063233 6.939667.80011 14.105285 3.132691 20.936737 1.638794 4.79953 1.23114 10.136719 1.905029 15.174194.911865 6.816834 2.336121 13.632355 2.799133 20.567627.424561 6.358124 2.041077 12.64328 3.235169 18.941132.88977 4.693115 1.35437 9.425598 2.457885 14.124939 3.809449 16.222198 8.630494 31.988189 17.797913 46.079101 3.800537 5.841797 10.901306 8.273896 17.043457 6.315216 4.089661-1.304138 7.604675-7.712066 7.625916-13.9599.019226-5.665557.390441-11.3638-.086792-16.9888-.637024-7.508209-1.862732-14.954803-3.382996-22.373504-1.015259-4.954193-1.858154-10.060639-2.332947-15.064881-.904907-9.537902-3.094726-18.849548-4.79187-28.185058-1.573242-8.653382-3.637573-17.360993-5.085876-26.024964-1.796692-10.747772-3.739502-21.51239-5.324646-32.316009-2.298645-15.666382-4.470581-31.308869-3.534424-47.097351.914978-15.431412 4.85083-29.892655 15.641723-42.018479 9.839966-11.057342 22.048523-14.651321 36.115113-13.957611 19.695007.971268 30.429382 10.245362 35.619568 29.508301 2.91278 10.810547 4.387146 21.770859 6.172607 32.764633 1.812195 11.158325 3.004883 22.434998 5.057556 33.583008 1.255554 6.818573 1.62793 14.133606 2.916626 20.995789 1.370056 7.295898.717041 14.808014 3.160462 21.970611 1.636962 4.798462 1.475219 10.185944 1.929382 15.131317.695068 7.567627 1.898132 15.152405 3.089783 22.546265 1.204101 7.471191.525329 15.221283 3.212951 22.504761 1.848755 5.010071 1.42627 10.511108 2.091431 15.738434.981323 7.713348 2.007202 15.48056 3.178955 23.144073 1.148621 7.511688 1.599243 15.110382 3.030701 22.611878 1.167419 6.117431 2.009582 12.370544 2.840759 18.584716.456116 3.410096-1.175232 4.776551-4.612305 4.744141-11.496948-.10846-22.996338-.129486-34.492859-.003388-4.020263.044068-5.03778-1.970703-5.273254-5.540588-.783936-11.885071-3.188171-23.578613-4.525269-35.41394-1.050109-9.295136-1.936035-18.727722-3.82434-27.877564-2.433777-11.79306-3.224793-23.789154-5.259766-35.624969-1.152527-6.703247-1.856201-13.721344-2.771301-20.557434-1.000794-7.47519-1.197815-15.087006-3.221802-22.457245-1.479553-5.388031-1.44812-11.14624-2.0448-16.630097-.784485-7.209442-1.909363-14.477447-2.938415-21.605438-1.007874-6.980896-1.237915-14.113312-2.99585-21.086121-1.598206-6.339294-1.595764-13.11798-2.327331-19.679748-.956238-8.577118-1.958985-17.0383-4.930665-25.123795-2.127807-5.789337-4.555908-11.801468-11.99768-12.396408-10.459595-.836151-16.062683 2.307877-19.751953 10.632508-3.850037 8.687286-5.966187 17.756927-5.934815 27.294555.025208 7.665222-.661133 15.41037.223572 22.973206.874573 7.476074 1.174072 15.095215 3.247559 22.424896 1.254394 4.434387 1.269653 9.12851 2.004577 13.629608.890503 5.453217 2.226135 10.932801 2.830872 16.511292.945679 8.72409 3.475586 17.2742 5.289123 25.907532.808411 3.848419 1.538636 7.807586 2.055176 11.604248 1.937866 14.242401 5.851746 28.09729 7.438721 42.422271 1.275451 11.512696 4.230163 22.997071 3.468017 34.543427-.974365 14.763061-4.957336 26.27539-22.33374 31.019104-12.069885 3.295074-24.445251 1.536804-35.332702-5.878815-13.116089-8.933563-21.260743-21.707214-27.289368-35.927124-4.674561-11.026123-8.153626-22.45459-10.465637-34.283752-2.268128-11.604828-4.637696-23.132294-6.078736-34.915497-1.213745-9.925171-2.457916-19.889466-3.977386-29.770966-2.282013-14.840667-4.202881-29.703003-6.076203-44.595855-2.068634-16.445649-4.029968-32.92508-6.613769-49.292389-1.091858-6.916443-2.200653-14.104737-5.75415-20.478043-1.218537-2.185425-2.445527-4.295105-4.545746-5.854797-1.703278 1.266143-2.032624 3.068695-2.233399 4.865799-1.621979 14.517562-4.303314 28.890533-6.151245 43.359741-1.610657 12.611389-3.111328 25.304199-5.031525 37.820312-4.188446 27.301056-3.664917 54.64737-3.508178 82.031098.04895 8.556061 2.312103 16.943054 3.561218 25.401642 1.288361 8.724212 3.548187 17.062988 6.56134 25.235046 5.795441 15.718018 14.074189 29.64032 28.617157 39.062927 3.358612 2.176087 8.0206 2.432526 10.251129 6.478394-3.633056 2.369629-83.757476 2.507202-88.212432.146454.785369-2.586731 1.842376-5.22757 1.500946-8.508789z"/><path d="m369.73291 477.765839c-8.998566 7.240417-18.24881 13.432983-28.891083 17.083313-8.086364 2.773681-16.203216 5.373108-24.988556 5.569397-7.217041.161224-14.314422.648284-21.632751.198883-16.775604-1.030243-31.809906-6.376526-45.496155-15.47464-22.513061-14.965882-36.590439-36.295899-45.438003-61.597138-3.453934-9.877197-6.486344-19.911133-7.81485-30.112884-1.255158-9.638489-2.798721-19.311554-2.846161-29.206696-.084061-17.543457.948242-34.936584 4.70047-52.01593 5.503601-25.051331 15.078796-48.427856 33.050781-67.291244 11.790543-12.375321 25.876633-21.346909 42.551743-26.569565 15.806671-4.950669 31.875122-5.017472 47.697174-3.282761 17.373932 1.904831 33.30365 9.066116 47.012726 20.436874 19.924926 16.526398 32.452362 37.739747 39.804535 62.295838 2.835907 9.471802 4.448486 19.147064 6.182922 28.876221 3.020599 16.943847 1.694946 33.872467 1.338043 50.737609-.219635 10.376587-2.299103 20.871796-5.059387 31.141236-2.762451 10.277374-6.061951 20.233276-10.712555 29.794647-7.257416 14.920624-16.450836 28.356384-29.458893 39.41684m-132.273361-115.718415c1.029419 8.762879 2.174972 17.515076 1.822327 26.376648-.272187 6.839417 1.368316 13.594727 2.553344 20.141144 2.20372 12.173798 4.734482 24.37793 9.229813 36.124786 4.869415 12.724305 10.454773 24.748597 19.860626 34.854493 19.68512 21.150177 48.150574 20.275695 66.781159-.464264 15.719482-17.499268 22.104522-39.143067 27.051696-61.328461 2.745911-12.313965 3.321442-24.978027 4.857636-37.481903 2.486572-20.239288.603149-40.288788-1.137146-60.272492-1.324005-15.203399-4.636597-30.272796-9.52475-44.935699-4.748627-14.244293-10.838898-27.590515-20.673065-39.090988-15.10437-17.663696-37.367493-21.696884-57.001648-9.655594-12.332489 7.563293-19.796478 19.456482-25.746231 32.227478-9.261063 19.878662-13.798889 41.20401-15.811432 62.762512-1.229492 13.170502-2.747147 26.487183-2.262329 40.74234z"/><path d="m868.786255 256.229889c5.335388 17.714294 10.421997 35.087158 15.683716 52.406799 3.043335 10.0177 6.515442 19.905609 9.52655 29.932404 3.018433 10.051269 5.549866 20.248932 8.575195 30.298004 3.558716 11.820648 7.507508 23.523346 11.125061 35.326874 4.005188 13.068481 7.757019 26.214569 11.74939 39.287079 3.722717 12.189514 7.756287 24.285522 11.363953 36.507995 1.391723 4.714966 2.558227 9.486206 4.22705 14.129059.802613 2.232819-.095092 4.051331-2.808776 4.061066-12.494263.0448-24.988709.015258-37.483094.031219-3.001037.003815-4.06726-2.354492-4.691589-4.457916-3.643921-12.277191-6.726685-24.72934-10.653076-36.911621-3.228882-10.017761-6.40271-20.043915-9.357605-30.144501-2.352112-8.040588-5.248718-15.949829-7.088501-24.101349-1.025513-4.543518-3.304749-5.525238-7.277588-5.526611-25.989563-.009033-51.979187-.092041-77.968689-.180359-8.005493-.027222-7.137634.10672-8.712097 7.863434-3.895325 19.191589.838074 38.184631.232055 57.236999-.342346 10.763214 1.86493 21.144135 2.853516 31.699036.356079 3.802124-1.095642 4.623047-4.404297 4.608643-17.492981-.076294-34.986511-.041718-52.479797-.058136-1.651611-.001557-3.357666.071716-4.799194-1.756409 2.676025-8.958893 5.366516-18.078796 8.128234-27.177033 2.324219-7.65689 4.809082-15.265503 7.082154-22.937133 2.927795-9.881379 5.613769-19.834961 8.591186-29.700928 3.132752-10.380951 6.495178-20.692474 9.741577-31.039215 4.008484-12.775543 8.08429-25.530823 11.973084-38.342804 3.047912-10.041596 5.796692-20.173554 8.786194-30.233368 2.983581-10.040131 6.134155-20.030518 9.149353-30.061401 2.358215-7.845215 4.564697-15.736237 6.939575-23.576294 3.794372-12.525925 7.530395-25.099472 15.543335-35.785111 14.221619-18.965149 42.922485-18.888367 56.796936 5.447373 4.081909 7.159622 7.562439 14.677917 9.656189 23.154205m-91.506348 105.133911c-1.426574 7.886169-1.818664 15.835541-1.981506 23.84494-.092651 4.556641 1.506287 5.610169 5.772705 5.558045 16.988342-.207611 33.980835-.08017 50.971741-.077912 9.494934.001252 18.98999-.031006 28.484619.02005 2.727844.014679 4.97467-.488556 3.845886-3.881652-2.280395-6.854645-4.246887-13.78241-6.146912-20.753937-2.797668-10.265045-6.314453-20.333435-9.497192-30.494293-3.994995-12.753968-7.970886-25.513916-11.938599-38.276337-4.390625-14.122589-8.739929-28.258087-13.154541-42.373169-1.704528-5.450012-3.559692-11.368103-10.068359-12.289551-5.211243-.737762-9.635559 2.525833-12.607117 6.653183-6.668884 9.262711-9.980346 20.101914-12.632263 30.980515-3.170715 13.006591-5.621765 26.178009-7.042786 39.556457-1.436462 13.52359-4.187072 26.910065-4.005676 41.533661z"/><path d="m165.3508 263.000092c-.004944 63.797821.163604 127.096496-.141861 190.392822-.073487 15.227417-5.218369 28.957397-17.700821 38.726257-6.021805 4.712708-12.851151 8.17804-20.863182 8.17276-2.038346-.001343-3.920113.933838-5.833558 1.098755-12.333213 1.063202-24.10247-.222443-33.445091-9.613983-1.820823-1.830414-2.007461-2.847778-1.962333-5.676697 5.860115.191559 11.477859 1.849518 17.604339.969147 10.473152-1.504975 20.56266-13.704132 20.667366-23.104248.092751-8.326996.267281-16.653168.349999-24.980225.239853-24.145386.866249-48.296692.538704-72.434814-.246293-18.151184.383102-36.283875.177047-54.425904-.334755-29.475189-.629524-58.950836-.898124-88.426666-.062272-6.833221.168449-7.004211 7.00666-7.012695 10.160935-.012634 20.32254.070206 30.482498-.027649 3.178513-.030624 4.324005.9906 4.263153 4.372696-.248703 13.82048-.19046 27.646454-.244796 41.970444z"/></svg>