<svg width="1200" height="800" viewBox="0 0 1200 800" fill="none" xmlns="http://www.w3.org/2000/svg">
<path d="M405.403 327.03C405.403 338.005 406.59 346.904 408.666 353.43C411.039 359.956 414.005 367.075 418.158 374.787C419.641 377.16 420.234 379.533 420.234 381.609C420.234 384.575 418.455 387.542 414.598 390.508L395.911 402.966C393.241 404.746 390.572 405.636 388.199 405.636C385.232 405.636 382.266 404.153 379.3 401.483C375.147 397.034 371.588 392.288 368.621 387.542C365.655 382.499 362.689 376.863 359.426 370.041C336.289 397.33 307.22 410.975 272.218 410.975C247.301 410.975 227.428 403.856 212.893 389.618C198.358 375.38 190.943 356.396 190.943 332.666C190.943 307.453 199.841 286.986 217.935 271.561C236.03 256.136 260.056 248.424 290.609 248.424C300.694 248.424 311.076 249.314 322.051 250.797C333.026 252.28 344.298 254.653 356.163 257.323V235.669C356.163 213.126 351.417 197.405 342.222 188.209C332.73 179.014 316.712 174.564 293.872 174.564C283.49 174.564 272.811 175.751 261.836 178.42C250.861 181.09 240.182 184.353 229.801 188.506C225.055 190.582 221.495 191.769 219.419 192.362C217.342 192.955 215.859 193.252 214.673 193.252C210.52 193.252 208.443 190.286 208.443 184.056V169.522C208.443 164.776 209.037 161.216 210.52 159.14C212.003 157.063 214.673 154.987 218.825 152.911C229.207 147.571 241.666 143.122 256.2 139.562C270.735 135.706 286.159 133.927 302.474 133.927C337.772 133.927 363.579 141.935 380.19 157.953C396.504 173.971 404.81 198.294 404.81 230.923V327.03H405.403ZM284.973 372.117C294.762 372.117 304.847 370.337 315.525 366.778C326.204 363.218 335.696 356.693 343.705 347.794C348.451 342.158 352.01 335.929 353.79 328.81C355.57 321.691 356.756 313.089 356.756 303.003V290.545C348.154 288.469 338.959 286.689 329.467 285.502C319.975 284.316 310.779 283.723 301.584 283.723C281.71 283.723 267.175 287.579 257.387 295.588C247.598 303.597 242.852 314.868 242.852 329.7C242.852 343.641 246.412 354.023 253.827 361.142C260.946 368.558 271.328 372.117 284.973 372.117ZM523.164 404.153C517.824 404.153 514.265 403.263 511.892 401.187C509.519 399.407 507.442 395.254 505.663 389.618L435.956 160.326C434.176 154.394 433.286 150.538 433.286 148.461C433.286 143.715 435.659 141.046 440.405 141.046H469.474C475.11 141.046 478.966 141.935 481.043 144.012C483.416 145.792 485.195 149.944 486.975 155.58L536.808 351.947L583.082 155.58C584.565 149.648 586.345 145.792 588.718 144.012C591.091 142.232 595.244 141.046 600.583 141.046H624.313C629.949 141.046 633.805 141.935 636.178 144.012C638.551 145.792 640.627 149.944 641.814 155.58L688.681 354.32L739.997 155.58C741.777 149.648 743.853 145.792 745.93 144.012C748.303 142.232 752.159 141.046 757.498 141.046H785.084C789.83 141.046 792.5 143.419 792.5 148.461C792.5 149.944 792.203 151.428 791.907 153.207C791.61 154.987 791.017 157.36 789.83 160.623L718.343 389.915C716.564 395.847 714.487 399.703 712.114 401.483C709.741 403.263 705.885 404.449 700.842 404.449H675.333C669.697 404.449 665.841 403.56 663.468 401.483C661.095 399.407 659.018 395.551 657.832 389.618L611.855 198.294L566.174 389.322C564.691 395.254 562.911 399.11 560.538 401.187C558.165 403.263 554.013 404.153 548.673 404.153H523.164ZM904.328 412.162C888.903 412.162 873.479 410.382 858.647 406.822C843.816 403.263 832.248 399.407 824.535 394.957C819.789 392.288 816.527 389.321 815.34 386.652C814.154 383.982 813.56 381.016 813.56 378.346V363.218C813.56 356.989 815.933 354.023 820.383 354.023C822.162 354.023 823.942 354.32 825.722 354.913C827.502 355.506 830.171 356.693 833.138 357.879C843.223 362.329 854.198 365.888 865.766 368.261C877.631 370.634 889.2 371.821 901.065 371.821C919.752 371.821 934.287 368.558 944.372 362.032C954.458 355.506 959.797 346.014 959.797 333.852C959.797 325.547 957.127 318.725 951.788 313.089C946.449 307.453 936.363 302.41 921.829 297.664L878.818 284.316C857.164 277.494 841.146 267.408 831.358 254.06C821.569 241.009 816.526 226.474 816.526 211.049C816.526 198.591 819.196 187.616 824.535 178.124C829.875 168.632 836.994 160.326 845.892 153.801C854.791 146.978 864.877 141.935 876.742 138.376C888.607 134.816 901.065 133.333 914.116 133.333C920.642 133.333 927.465 133.63 933.99 134.52C940.813 135.41 947.042 136.596 953.271 137.783C959.204 139.266 964.839 140.749 970.179 142.529C975.518 144.309 979.671 146.088 982.637 147.868C986.79 150.241 989.756 152.614 991.536 155.284C993.316 157.657 994.205 160.92 994.205 165.072V179.014C994.205 185.243 991.832 188.506 987.383 188.506C985.01 188.506 981.154 187.319 976.111 184.946C959.204 177.234 940.219 173.378 919.159 173.378C902.251 173.378 888.903 176.047 879.708 181.683C870.512 187.319 865.766 195.921 865.766 208.083C865.766 216.389 868.733 223.508 874.665 229.144C880.598 234.779 891.573 240.415 907.294 245.458L949.415 258.806C970.772 265.629 986.196 275.121 995.392 287.282C1004.59 299.444 1009.04 313.385 1009.04 328.81C1009.04 341.565 1006.37 353.133 1001.32 363.218C995.985 373.304 988.866 382.202 979.671 389.322C970.475 396.737 959.5 402.076 946.745 405.933C933.397 410.085 919.456 412.162 904.328 412.162Z" fill="#252F3E"/>
<path fill-rule="evenodd" clip-rule="evenodd" d="M960.39 556.322C862.8 628.402 721.013 666.667 599.1 666.667C428.243 666.667 274.294 603.485 158.017 498.48C148.822 490.174 157.127 478.903 168.102 485.428C293.872 558.398 449.007 602.596 609.482 602.596C717.75 602.596 836.697 580.052 946.152 533.778C962.467 526.363 976.408 544.457 960.39 556.322Z" fill="#FF9900"/>
<path fill-rule="evenodd" clip-rule="evenodd" d="M1001.03 510.048C988.57 494.03 918.566 502.336 886.827 506.192C877.335 507.379 875.852 499.073 884.454 492.844C940.219 453.689 1031.88 464.961 1042.56 478.013C1053.23 491.361 1039.59 583.018 987.383 626.919C979.374 633.741 971.662 630.182 975.221 621.283C987.086 591.917 1013.49 525.769 1001.03 510.048Z" fill="#FF9900"/>
</svg>
