<svg width="902" height="827" viewBox="0 0 902 827" fill="none" xmlns="http://www.w3.org/2000/svg">
<path d="M455.82 483.278C442.262 488.99 427.407 496.433 397.669 511.396C386.394 517.211 374.612 523.026 363.647 528.505C362.886 527.807 362.097 526.928 361.336 526.205C302.508 468.573 193.704 427.869 198.327 350.467C200.047 322.272 210.617 248.255 407.281 158.371C569.134 85.2327 697.922 105.494 720.162 150.436C752.127 214.503 651.131 333.72 483.979 351.01C465.48 354.45 446.373 354.035 428.072 349.794C409.771 345.553 392.744 337.596 378.248 326.51C369.397 317.697 368.072 317.18 364.803 318.938C359.419 321.522 362.886 329.508 364.803 334.082C371.179 344.666 379.804 353.971 390.17 361.446C400.536 368.921 412.431 374.415 425.152 377.603C490.931 390.639 559.513 384.41 621.224 359.797C722.53 323.848 801.624 223.91 778.454 140.125C755.199 55.1764 601.408 27.1618 455.905 74.5592C364.782 102.713 280.593 147.033 208.136 204.993C127.971 273.737 115.287 333.488 120.473 358.505C139.133 447.33 272.686 505.142 326.242 547.965C323.423 549.386 321.056 550.549 318.941 551.661C292.22 563.833 190.35 612.652 164.953 664.288C136.117 722.798 169.576 764.742 191.675 770.376C224.978 777.69 259.941 775.286 291.682 763.499C323.422 751.712 350.356 731.131 368.721 704.63C384.316 682.654 393.893 657.551 396.636 631.454C399.379 605.357 395.208 579.038 384.477 554.736C390.809 550.106 397.561 545.982 404.66 542.409C418.302 535.017 431.297 527.729 442.826 522.095C482.299 505.144 525.376 496.415 568.965 496.536C660.461 506.408 678.529 558.742 675.062 580.787C673.44 588.608 670.01 596.02 665.002 602.524C659.994 609.028 653.525 614.473 646.029 618.493C639.687 622.188 637.573 623.429 638.137 626.065C638.898 629.941 641.97 629.761 647.354 629.063C661.101 625.079 673.212 617.377 682.096 606.966C690.98 596.556 696.222 583.925 697.133 570.733C699.952 519.046 646.198 462.345 551.037 462.862C522.543 462.907 494.334 468.06 467.997 478.032C463.769 479.634 459.663 481.357 455.679 483.201L455.82 483.278ZM319.815 685.867C289.429 716.182 247.148 727.631 228.882 717.939C209.151 707.602 216.959 662.763 254.251 630.691C276.338 612.445 300.21 596.104 325.566 581.872C329.991 579.288 336.531 575.876 344.395 571.535C345.748 570.837 346.509 570.475 346.509 570.475L351.132 567.891C357.783 588.336 358.388 610.034 352.885 630.764C347.382 651.494 335.97 670.511 319.815 685.867Z" fill="#CD6799"/>
</svg>
